# xmcd
# 
# Track frame offsets:
#     150
#     21780
#     42955
#     64975
#     80900
#     130142
# 
# Disc length: 2105
# 
# Revision: 1
# Processed by: cddbd v1.5.2PL0 Copyright (c) Steve Scherf et al.
# Submitted via: BonkEnc v1.0.8
# 
DISCID=4f083706
DTITLE=Idris Muhammad - House Of The Rising Sun
DYEAR=1975
DGENRE=Fusion
TTITLE0=House Of The Rising Sun
TTITLE1=Bahia
TTITLE2=Hard To Face The Music
TTITLE3=Theme For New York City
TTITLE4=Sudan
TTITLE5=Hey Pocky A-way
EXTD=YEAR: 1975
EXTT0=
EXTT1=
EXTT2=
EXTT3=
EXTT4=
EXTT5=
PLAYORDER=
